<svg width="24" height="24" viewBox="0 0 600 600" fill="none" xmlns="http://www.w3.org/2000/svg">
<defs>
  <mask id="sheepMask">
    <!-- White = visible, Black = hidden -->
    <rect width="600" height="600" fill="white"/>
    <!-- Cut out the face -->
    <path d="M248.399 518.291C213.474 505.813 186.971 484.152 169.548 451.693C157.504 429.245 155.706 404.789 156.388 380.203C157.241 349.961 162.056 320.152 170.44 291C173.458 280.517 177.407 270.388 182.156 260.155C190.448 262.057 197.69 266.111 205.969 267.318C216.636 268.879 227.013 268.328 237.326 266.085C241.537 265.166 244.174 265.98 247.192 268.932C266.085 287.444 289.399 291.839 314.589 288.809C331.632 286.762 346.3 279.231 358.463 267.056C359.998 265.521 361.52 264.786 363.724 265.468C383.391 271.49 402.179 267.462 421.032 260.299C426.713 266.701 428.392 274.993 430.885 282.8C438.18 305.694 441.722 329.323 444.32 353.162C446.235 370.691 447.889 388.14 445.632 405.76C439.138 456.548 413.764 493.113 365.98 513.58C339.557 524.903 312.162 528.445 283.876 525.966C272.015 524.916 260.168 522.817 248.399 518.291Z" fill="black"/>
    <!-- Cut out the wool inner part -->
    <path d="M60.127 291.682C78.1539 258.921 103.764 233.967 133.796 213.159C136.485 211.296 138.873 208.973 141.3 206.743C144.594 203.739 145.355 200.117 143.465 196.05C131.054 169.285 150.576 121.371 193.321 113.407C205.208 111.19 216.294 113.565 227.25 117.593C235.804 120.741 238.165 120.19 242.561 112.069C250.892 96.64 262.884 85.6061 280.163 81.5126C311.493 74.0867 343.388 80.8697 362.53 109.983C369.142 120.046 370.507 119.679 381.987 116.307C419.012 105.43 455.761 122.749 461.717 164.969C463.278 176.082 461.074 186.197 457.545 196.339C454.632 204.696 455.328 208.16 463.016 212.949C476.805 221.542 490.948 229.559 502.94 240.763C527.763 263.946 549.529 289.242 559.54 322.619C564.027 337.563 567.333 352.637 561.862 368.185C559.435 375.073 553.767 377.828 547.653 381.082C546 340.843 524.719 311.191 499.634 283.534C482.394 264.523 461.73 249.475 441.184 234.348C433.955 229.021 430.938 229.782 424.141 235.935C415.732 243.532 405.012 245.946 394.412 248.465C383.115 251.141 372.331 249.842 362.018 244.424C356.744 241.642 352.441 242.823 349.043 247.822C338.127 263.907 322.068 269.929 303.49 270.913C286.08 271.844 269.457 268.302 258.344 254.421C250.183 244.227 243.033 242.587 231.225 247.035C212.568 254.067 195.552 247.179 180.332 236.342C173.471 231.461 167.908 230.53 160.889 235.358C118.367 264.563 81.88 299.082 61.0323 347.534C58.7888 352.756 57.4243 358.292 56.7421 363.921C56.0861 369.339 54.7085 374.705 55.5219 380.203C46.1936 381.134 38.1773 372.357 38.2166 360.759C38.2822 344.136 42.9267 328.457 49.6048 313.382C52.793 306.153 56.4141 299.16 60.127 291.682Z" fill="black"/>
    <!-- Add back the eyes -->
    <path d="M395.304 339.57C399.581 357.676 387.13 375.624 370.848 375.296C361.585 375.112 355.353 369.641 350.827 362.32C343.48 350.407 344.897 333.548 353.595 322.973C362.399 312.28 377.447 311.585 387.012 321.596C391.643 326.437 394.569 332.236 395.304 339.57Z" fill="white"/>
    <path d="M213.29 365.443C203.647 350.722 203.804 335.673 213.395 323.655C222.946 311.69 238.585 311.467 248.452 323.144C257.084 333.364 258.751 350.892 252.217 362.596C243.479 378.248 226.476 379.665 213.29 365.443Z" fill="white"/>
  </mask>
</defs>
<!-- Outer wool shape with mask applied -->
<path mask="url(#sheepMask)" d="M583.274 348.557C587.63 368.762 577.632 387.235 558.818 397.521C537.236 409.329 517.202 404.094 496.944 394.385C485.805 389.045 475.913 381.948 465.312 373.249C465.312 378.904 465.325 383.365 465.312 387.838C465.128 429.403 452.113 466.204 423.905 497.036C401.47 521.557 372.803 534.599 340.567 540.726C323.878 543.901 307.072 545.672 290.134 544.531C229.126 540.398 181.986 513.436 152.557 458.818C143.452 441.932 140.474 423.079 138.493 404.055C137.443 393.939 137.574 383.863 137.246 372.816C130.175 377.998 124.153 383.574 117.199 387.865C101.744 397.429 85.6454 405.262 66.9232 404.383C36.5242 402.953 16.936 381.357 20.5046 350.761C25.1622 310.745 43.1104 276.804 68.76 246.405C84.8845 227.302 103.056 210.508 123.825 196.746C110.692 143.006 149.684 102.623 186.42 94.4358C198.622 91.72 210.889 92.1136 222.749 95.5904C228.286 97.2173 231.238 96.0496 234.177 91.5888C261.034 50.8118 334.637 46.561 368.381 87.6397C374.836 95.4854 380.557 96.6138 389.229 94.9738C428.445 87.5085 464.066 111.072 476.621 145.276C483.05 162.778 483.26 180.241 476.989 198.32C485.425 203.555 494.123 208.527 501.838 214.996C537 244.502 564.788 279.165 578.301 323.839C580.637 331.698 582.92 339.649 583.274 348.557Z" fill="currentColor"/>
</svg>
